<svg width="24" height="24" viewBox="0 0 24 24" fill="none" xmlns="http://www.w3.org/2000/svg">
<path d="M12.0554 21.2386C10.8509 21.2386 9.77699 21.017 8.83381 20.5739C7.89631 20.1307 7.15199 19.5199 6.60085 18.7415C6.04972 17.9631 5.76278 17.071 5.74006 16.0653H9.3196C9.35938 16.7415 9.64347 17.2898 10.1719 17.7102C10.7003 18.1307 11.3281 18.3409 12.0554 18.3409C12.6349 18.3409 13.1463 18.2131 13.5895 17.9574C14.0384 17.696 14.3878 17.3352 14.6378 16.875C14.8935 16.4091 15.0213 15.875 15.0213 15.2727C15.0213 14.6591 14.8906 14.1193 14.6293 13.6534C14.3736 13.1875 14.0185 12.8239 13.5639 12.5625C13.1094 12.3011 12.5895 12.1676 12.0043 12.1619C11.4929 12.1619 10.9957 12.267 10.5128 12.4773C10.0355 12.6875 9.66335 12.9744 9.39631 13.3381L6.11506 12.75L6.94176 3.54545H17.6122V6.5625H9.98438L9.53267 10.9347H9.63494C9.94176 10.5028 10.4048 10.1449 11.0241 9.8608C11.6435 9.5767 12.3366 9.43466 13.1037 9.43466C14.1548 9.43466 15.0923 9.68182 15.9162 10.1761C16.7401 10.6705 17.3906 11.3494 17.8679 12.2131C18.3452 13.071 18.581 14.0597 18.5753 15.179C18.581 16.3551 18.3082 17.4006 17.7571 18.3153C17.2116 19.2244 16.4474 19.9403 15.4645 20.4631C14.4872 20.9801 13.3509 21.2386 12.0554 21.2386Z" fill="white"/>
</svg>
